<svg width="64" height="64" viewBox="0 0 64 64" fill="none" xmlns="http://www.w3.org/2000/svg">
<path d="M28.7999 7.99999C28.3519 8.51199 27.1999 8.95999 26.3039 8.95999C19.5199 8.95999 11.9039 14.656 9.98394 21.12C7.87194 28.16 9.08794 47.104 11.9039 52.672C13.6319 55.936 15.4239 56.192 21.3119 54.08C25.4719 52.544 27.6479 52.16 31.6799 52.16C35.7119 52.16 37.8879 52.544 42.0479 54.08C47.9359 56.192 49.7279 55.936 51.4559 52.672C54.3359 46.976 55.4879 27.904 53.3119 21.056C51.1999 14.528 43.9039 9.02399 37.1839 8.95999C36.2879 8.95999 34.9439 8.51199 34.3039 7.99999C32.6399 6.78399 29.8239 6.78399 28.7999 7.99999ZM33.9199 8.31999C34.7519 8.89599 34.7519 9.02399 33.9199 9.59999C33.4079 9.91999 32.3839 10.24 31.6799 10.24C30.9759 10.24 29.9519 9.91999 29.4399 9.59999C28.6079 9.02399 28.6079 8.89599 29.4399 8.31999C29.9519 7.99999 30.9759 7.67999 31.6799 7.67999C32.3839 7.67999 33.4079 7.99999 33.9199 8.31999ZM30.5919 10.88C31.1679 10.88 31.3599 13.504 31.3599 21.76V32.64H28.9919C26.5599 32.64 19.1999 33.664 17.1519 34.304C16.1279 34.624 15.9999 34.112 15.9999 29.312C15.9999 26.368 16.3199 22.912 16.6399 21.632C17.5999 18.368 20.9919 14.08 23.9999 12.352C26.8159 10.752 26.6239 10.304 23.8079 11.776C22.8479 12.288 21.1839 13.632 20.0959 14.848C16.5119 18.624 15.7439 20.8 15.4879 28.16L15.2319 34.88L12.6719 35.968L10.1119 37.056L10.3679 29.568C10.6239 21.376 11.2639 19.328 14.9759 15.488C18.3679 11.84 22.2719 10.24 26.8799 10.624C28.4799 10.752 30.1439 10.816 30.5919 10.88ZM43.8399 12.032C46.8479 13.568 49.9199 16.704 51.5839 19.84C52.4799 21.504 52.7999 23.936 52.9919 29.568L53.2479 37.056L50.6239 35.968L47.9999 34.88L47.8719 29.76L47.7439 24.64L47.5519 29.632L47.2959 34.688L45.5679 34.24C42.4319 33.472 36.8639 32.64 34.4319 32.64H31.9999V21.824C31.9999 13.76 32.1919 10.944 32.7679 10.752C34.8799 10.048 41.4719 10.816 43.8399 12.032ZM41.5999 34.816C44.2879 35.328 47.9359 36.352 49.7919 37.12C53.5679 38.784 53.6319 38.848 52.2239 45.568C51.1999 50.368 49.6639 53.632 48.2559 54.208C47.7439 54.4 44.6079 53.632 41.2799 52.544C33.4719 49.984 29.8879 49.984 22.0799 52.544C18.7519 53.632 15.6159 54.4 15.1039 54.208C13.6959 53.632 12.1599 50.368 11.1359 45.568C9.72794 38.848 9.79194 38.784 13.6319 37.12C20.5439 34.112 32.3199 33.152 41.5999 34.816Z" fill="#C92071"/>
<path d="M22.6559 16.32C22.3999 16.896 22.5279 17.664 22.9119 18.048C23.8719 19.008 25.7279 18.112 25.4719 16.832C25.2159 15.36 23.1679 14.976 22.6559 16.32ZM24.9599 16.96C24.9599 17.472 24.5119 17.92 23.9999 17.92C23.4879 17.92 23.0399 17.472 23.0399 16.96C23.0399 16.448 23.4879 16 23.9999 16C24.5119 16 24.9599 16.448 24.9599 16.96Z" fill="#C92071"/>
<path d="M38.08 11.648C38.784 12.032 40.256 12.928 41.28 13.696C42.88 14.72 43.008 14.784 42.304 13.824C41.792 13.248 40.576 12.288 39.616 11.776C37.504 10.752 36.224 10.56 38.08 11.648Z" fill="#C92071"/>
<path d="M38.016 16.32C37.76 16.896 37.888 17.664 38.272 18.048C39.232 19.008 41.088 18.112 40.832 16.832C40.576 15.36 38.528 14.976 38.016 16.32ZM40.32 16.96C40.32 17.472 39.872 17.92 39.36 17.92C38.848 17.92 38.4 17.472 38.4 16.96C38.4 16.448 38.848 16 39.36 16C39.872 16 40.32 16.448 40.32 16.96Z" fill="#C92071"/>
<path d="M46.08 20.288C46.08 20.544 46.4 21.248 46.72 21.76C47.232 22.592 47.36 22.592 47.36 21.632C47.36 21.056 47.104 20.352 46.72 20.16C46.4 19.968 46.08 19.968 46.08 20.288Z" fill="#C92071"/>
</svg>
